<svg xmlns="http://www.w3.org/2000/svg" xmlns:xlink="http://www.w3.org/1999/xlink" viewBox="0 0 961 601"><defs><style>.cls-1{fill:#d4e8f4;}.cls-2{isolation:isolate;}.cls-3{opacity:0.13;}.cls-4{clip-path:url(#clip-path);}.cls-5,.cls-7{mix-blend-mode:multiply;}.cls-6{fill:#595656;}.cls-7{opacity:0.2;}.cls-8{fill:url(#linear-gradient);}.cls-9{fill:url(#linear-gradient-2);}.cls-10{fill:url(#linear-gradient-3);}.cls-11{fill:url(#linear-gradient-4);}.cls-12{fill:url(#linear-gradient-5);}.cls-13{fill:url(#linear-gradient-6);}.cls-14{fill:url(#linear-gradient-7);}.cls-15{fill:url(#linear-gradient-8);}.cls-16{fill:url(#linear-gradient-9);}.cls-17{fill:url(#linear-gradient-10);}.cls-18{fill:url(#linear-gradient-11);}.cls-19{fill:url(#linear-gradient-12);}.cls-20{fill:url(#linear-gradient-13);}.cls-21{fill:url(#linear-gradient-14);}.cls-22{fill:url(#linear-gradient-15);}.cls-23{fill:url(#linear-gradient-16);}.cls-24{fill:url(#linear-gradient-17);}.cls-25{fill:url(#linear-gradient-18);}.cls-26,.cls-27,.cls-28{fill:none;stroke-miterlimit:10;stroke-width:7px;}.cls-26{stroke:#2586c7;}.cls-27{stroke:#f7981d;}.cls-28{stroke:#e94435;}.cls-29{fill:#252f3e;}.cls-30{fill:#f7981d;}.cls-31{fill:#2386c7;}.cls-32{fill:#ea4335;}.cls-33{fill:#4285f4;}.cls-34{fill:#34a853;}.cls-35{fill:#fbbc05;}</style><clipPath id="clip-path"><rect class="cls-1" x="973.01" y="-44.96" width="1201.68" height="701.58"/></clipPath><linearGradient id="linear-gradient" x1="1555.04" y1="1178.87" x2="828.74" y2="57.46" gradientUnits="userSpaceOnUse"><stop offset="0" stop-color="#54bae6"/><stop offset="0.2" stop-color="#6bc2e9"/><stop offset="0.62" stop-color="#a5d8ef"/><stop offset="1" stop-color="#dfedf6"/></linearGradient><linearGradient id="linear-gradient-2" x1="1443.5" y1="1170.97" x2="756.81" y2="110.72" xlink:href="#linear-gradient"/><linearGradient id="linear-gradient-3" x1="1567.47" y1="1223.84" x2="804.71" y2="46.15" xlink:href="#linear-gradient"/><linearGradient id="linear-gradient-4" x1="1442.64" y1="1234.29" x2="716.33" y2="112.88" xlink:href="#linear-gradient"/><linearGradient id="linear-gradient-5" x1="1337.22" y1="1235.86" x2="650.53" y2="175.6" xlink:href="#linear-gradient"/><linearGradient id="linear-gradient-6" x1="1449.42" y1="1270.56" x2="686.66" y2="92.86" xlink:href="#linear-gradient"/><linearGradient id="linear-gradient-7" x1="1584.39" y1="1080.28" x2="899.93" y2="23.46" xlink:href="#linear-gradient"/><linearGradient id="linear-gradient-8" x1="1743.75" y1="1151.12" x2="980.99" y2="-26.58" xlink:href="#linear-gradient"/><linearGradient id="linear-gradient-9" x1="1581.91" y1="1162.81" x2="857.5" y2="44.33" xlink:href="#linear-gradient"/><linearGradient id="linear-gradient-10" x1="1446.34" y1="1165.54" x2="761.87" y2="108.73" xlink:href="#linear-gradient"/><linearGradient id="linear-gradient-11" x1="1589.9" y1="1212" x2="827.14" y2="34.3" xlink:href="#linear-gradient"/><linearGradient id="linear-gradient-12" x1="1435.79" y1="1235.64" x2="711.39" y2="117.16" xlink:href="#linear-gradient"/><linearGradient id="linear-gradient-13" x1="1316.02" y1="1247.27" x2="630.45" y2="188.75" xlink:href="#linear-gradient"/><linearGradient id="linear-gradient-14" x1="1441.9" y1="1275.94" x2="673.98" y2="90.27" xlink:href="#linear-gradient"/><linearGradient id="linear-gradient-15" x1="1574.46" y1="1170.95" x2="846.49" y2="46.97" xlink:href="#linear-gradient"/><linearGradient id="linear-gradient-16" x1="1461.79" y1="1225.97" x2="733.83" y2="102" xlink:href="#linear-gradient"/><linearGradient id="linear-gradient-17" x1="1499.35" y1="1207.63" x2="771.38" y2="83.66" xlink:href="#linear-gradient"/><linearGradient id="linear-gradient-18" x1="1386.54" y1="1262.39" x2="658.84" y2="138.82" xlink:href="#linear-gradient"/></defs><title>cloud-topbanner-02</title><g class="cls-2"><g id="Layer_1" data-name="Layer 1"><g class="cls-3"><rect class="cls-1" x="973.01" y="-44.96" width="1201.68" height="701.58"/><g class="cls-4"><g class="cls-5"><polygon class="cls-6" points="911.88 188.52 911.88 191.35 952.99 210.41 952.99 290.49 911.88 309.54 911.88 312.37 956.04 291.9 956.04 208.99 911.88 188.52"/><path class="cls-6" d="M1042.43,333.36,953,291.91V209l89.44-41.46L1131.88,209v82.92ZM956,290.49l86.39,40,86.4-40V210.4l-86.4-40L956,210.4Z"/><polygon class="cls-6" points="954.51 289.78 911.88 309.54 911.88 312.37 954.51 292.61 1040.91 332.65 1040.91 412.74 954.51 452.78 911.88 433.02 911.88 435.85 954.51 455.61 1043.96 414.15 1043.96 331.24 954.51 289.78"/><polygon class="cls-6" points="911.88 433.02 911.88 435.85 952.99 454.9 952.99 534.99 911.88 554.04 911.88 556.87 956.04 536.4 956.04 453.49 911.88 433.02"/><path class="cls-6" d="M1042.43,577.86,953,536.4V453.49L1042.43,412l89.45,41.46V536.4ZM956,535l86.39,40,86.4-40V454.9l-86.4-40L956,454.9Z"/><polygon class="cls-6" points="954.51 534.28 911.88 554.04 911.88 556.87 954.51 537.11 1040.91 577.15 1040.91 657.24 960.62 694.45 966.72 694.45 1043.96 658.65 1043.96 575.74 954.51 534.28"/></g><g class="cls-7"><polygon class="cls-8" points="923.61 165.52 923.43 165.44 911.88 170.79 911.88 171.46 923.43 166.1 1005.41 204.1 1005.41 280.09 923.43 318.09 911.88 312.73 911.88 313.4 923.25 318.67 923.43 318.75 1005.95 280.51 1006.13 280.42 1006.13 203.77 923.61 165.52"/><polygon class="cls-9" points="911.88 312.73 911.88 313.4 923.08 318.59 923.08 394.58 911.88 399.77 911.88 400.44 923.61 395 923.79 394.91 923.79 318.25 911.88 312.73"/><path class="cls-10" d="M1005.77,433.24l-.18-.08-82.52-38.25V318.25l.18-.08,82.52-38.24.18.08,82.52,38.24v76.66l-.18.09Zm-82-38.66,82,38,82-38v-76l-82-38-82,38Z"/><polygon class="cls-11" points="923.61 394.5 923.43 394.42 911.88 399.77 911.88 400.44 923.43 395.08 1005.41 433.08 1005.41 509.07 923.43 547.07 911.88 541.71 911.88 542.38 923.25 547.65 923.43 547.73 1005.95 509.49 1006.13 509.4 1006.13 432.74 923.61 394.5"/><polygon class="cls-12" points="911.88 541.71 911.88 542.38 923.08 547.57 923.08 623.56 911.88 628.75 911.88 629.41 923.61 623.98 923.79 623.89 923.79 547.23 911.88 541.71"/><path class="cls-13" d="M1005.77,662.22l-.18-.08-82.52-38.25V547.23l.18-.08,82.52-38.25.18.09,82.52,38.24v76.66l-.18.09Zm-82-38.66,82,38,82-38v-76l-82-38-82,38Z"/><polygon class="cls-14" points="911.88 -7.74 911.88 -4.29 920.5 -0.29 920.5 97.46 911.88 101.45 911.88 104.91 924.23 99.18 924.23 -2.02 911.88 -7.74"/><path class="cls-15" d="M1029.67,149.78,920.5,99.18V-2l109.17-50.6L1138.85-2V99.18ZM924.23,97.46l105.44,48.87,105.45-48.87V-.29L1029.67-49.16,924.23-.29Z"/><polygon class="cls-16" points="922.36 96.59 911.88 101.45 911.88 104.91 922.36 100.05 1027.81 148.92 1027.81 246.67 922.36 295.54 911.88 290.68 911.88 294.13 922.36 299 1031.54 248.4 1031.54 147.19 922.36 96.59"/><polygon class="cls-17" points="911.88 290.68 911.88 294.14 920.5 298.13 920.5 395.88 911.88 399.87 911.88 403.33 924.23 397.61 924.23 296.4 911.88 290.68"/><path class="cls-18" d="M1029.67,448.21,920.5,397.61V296.4l109.17-50.6,109.18,50.6V397.61ZM924.23,395.88l105.44,48.87,105.45-48.87V298.13l-105.45-48.87L924.23,298.13Z"/><polygon class="cls-19" points="922.36 395.01 911.88 399.87 911.88 403.33 922.36 398.47 1027.81 447.34 1027.81 545.09 922.36 593.96 911.88 589.1 911.88 592.56 922.36 597.42 1031.54 546.82 1031.54 445.62 922.36 395.01"/><polygon class="cls-20" points="911.88 589.1 911.88 592.56 920.5 596.55 920.5 684.1 924.23 684.1 924.23 594.83 911.88 589.1"/><polygon class="cls-21" points="924.23 684.1 924.23 596.55 1029.67 547.68 1135.12 596.55 1135.12 684.1 1138.85 684.1 1138.85 594.83 1029.67 544.23 920.5 594.83 920.5 684.1 924.23 684.1"/><path class="cls-22" d="M923.43,174.2c5.8,0,10.5-3.78,10.5-8.43s-4.7-8.43-10.5-8.43-10.5,3.77-10.5,8.43S917.63,174.2,923.43,174.2Z"/><path class="cls-23" d="M916.53,394.75c0,3.06,3.09,5.54,6.9,5.54s6.9-2.48,6.9-5.54-3.09-5.54-6.9-5.54S916.53,391.69,916.53,394.75Z"/><path class="cls-24" d="M928.16,318.42c0-2.1-2.12-3.8-4.73-3.8s-4.73,1.7-4.73,3.8,2.12,3.8,4.73,3.8S928.16,320.52,928.16,318.42Z"/><path class="cls-25" d="M923.43,536.88c-5,0-9.36,2.31-11.55,5.66v9.72c2.19,3.35,6.51,5.66,11.55,5.66,7.24,0,13.1-4.71,13.1-10.52S930.67,536.88,923.43,536.88Z"/></g></g></g><path class="cls-26" d="M761.86,403.42h67.55c71,0,122.16-48.72,122.16-109.3,0-47.65-31.15-93.79-78.36-106.69-3.07-37.21-21.34-65.88-46.81-81.17-24.58-14.75-54.77-17.31-82-7.63-23.16-38-65.56-68.11-120.75-68.11h0c-79.76,0-137.6,64.68-141.84,135.42"/><path class="cls-27" d="M307,329.09c4.23-70.74,62.08-135.41,141.84-135.41h0a139.93,139.93,0,0,1,59.77,13.1,98.9,98.9,0,0,0-18.63-7.2c-3.07-37.22-21.34-65.89-46.81-81.17-24.58-14.75-54.77-17.31-82-7.64C338,72.8,295.64,42.65,240.45,42.65h0c-79.76,0-137.6,64.68-141.84,135.42C50.32,194.4,15.43,239.74,15.43,293.4c0,67.31,54.84,122.15,122.16,122.15H227.3A122.4,122.4,0,0,1,307,329.09Z"/><path class="cls-28" d="M227.3,415.55a120.94,120.94,0,0,0-3.47,28.87c0,67.31,54.84,122.15,122.15,122.15H654.59c71,0,122.15-48.71,122.15-109.3,0-47.64-31.14-93.79-78.35-106.68-3.08-37.22-21.34-65.89-46.82-81.17-24.58-14.75-54.76-17.31-82-7.63a142.88,142.88,0,0,0-61-55"/><path class="cls-26" d="M776.74,457.27c0-47.64-31.14-93.79-78.35-106.68-3.08-37.22-21.34-65.89-46.82-81.17-24.58-14.75-54.76-17.31-82-7.63a142.88,142.88,0,0,0-61-55"/><path class="cls-29" d="M204.75,202.27a14.39,14.39,0,0,0,.52,4.23,26.13,26.13,0,0,0,1.5,3.38,2.12,2.12,0,0,1,.34,1.09,1.9,1.9,0,0,1-.9,1.4l-3,2a2.19,2.19,0,0,1-1.21.43,2.14,2.14,0,0,1-1.4-.65,13.91,13.91,0,0,1-1.69-2.21c-.47-.8-.93-1.68-1.46-2.77a17.32,17.32,0,0,1-13.82,6.49,12.82,12.82,0,0,1-9.35-3.38,13.51,13.51,0,0,1,.73-18.85,17,17,0,0,1,11.52-3.75,37.54,37.54,0,0,1,5,.38c1.74.24,3.52.62,5.41,1v-3.28c0-3.57-.75-6.06-2.21-7.48s-4-2.17-7.67-2.17a21.57,21.57,0,0,0-5.06.62,37.25,37.25,0,0,0-5.07,1.59,14.29,14.29,0,0,1-1.65.62,3.12,3.12,0,0,1-.75.15c-.65,0-1-.47-1-1.46v-2.34a3,3,0,0,1,.34-1.65,3.45,3.45,0,0,1,1.31-1,26.84,26.84,0,0,1,5.93-2.11,28.31,28.31,0,0,1,7.33-.9c5.61,0,9.69,1.27,12.31,3.74s3.91,6.4,3.91,11.56V202.2Zm-19.08,7.15a15.13,15.13,0,0,0,4.85-.85,10.47,10.47,0,0,0,4.47-3,7.6,7.6,0,0,0,1.59-3,16.56,16.56,0,0,0,.46-4.09v-2a39.85,39.85,0,0,0-4.34-.78,34.13,34.13,0,0,0-4.41-.28,10.81,10.81,0,0,0-7,1.87,6.57,6.57,0,0,0-2.3,5.46,6,6,0,0,0,6.68,6.71Zm37.75,5.07a2.65,2.65,0,0,1-1.87-.47,3.71,3.71,0,0,1-1-1.87l-11-36.29a7.94,7.94,0,0,1-.43-1.87,1,1,0,0,1,.86-1.17,1.13,1.13,0,0,1,.26,0h4.6a2.6,2.6,0,0,1,1.87.47,3.87,3.87,0,0,1,.94,1.87l7.89,31.11,7.33-31.11a3.33,3.33,0,0,1,.9-1.87,3.22,3.22,0,0,1,2-.45h3.75a2.83,2.83,0,0,1,1.87.47,3.13,3.13,0,0,1,.89,1.87l7.49,31.5,8.13-31.5a4,4,0,0,1,.94-1.87,3.07,3.07,0,0,1,1.87-.47h4.24a1,1,0,0,1,1.18.9,1.31,1.31,0,0,1,0,.28,4.8,4.8,0,0,1-.09.75,7.19,7.19,0,0,1-.34,1.18l-11.22,36.3a3.63,3.63,0,0,1-1,1.87,3,3,0,0,1-1.87.47h-4a2.82,2.82,0,0,1-1.87-.47,3.33,3.33,0,0,1-.9-1.87l-7.3-30.36-7.23,30.23a3.76,3.76,0,0,1-.9,1.87,2.94,2.94,0,0,1-1.87.47Zm60.39,1.36a31.46,31.46,0,0,1-7.23-.84,21.54,21.54,0,0,1-5.41-1.87,3.37,3.37,0,0,1-1.46-1.31,3.28,3.28,0,0,1-.28-1.31V208c0-1,.37-1.46,1.08-1.46a3,3,0,0,1,.85.15c.28.1.71.28,1.18.47a25.65,25.65,0,0,0,5.16,1.65,28.46,28.46,0,0,0,5.61.56,12.7,12.7,0,0,0,6.86-1.55,5.06,5.06,0,0,0,2.45-4.47,4.55,4.55,0,0,0-1.27-3.3,11.85,11.85,0,0,0-4.75-2.45l-6.81-2.11a14.28,14.28,0,0,1-7.48-4.79A11.27,11.27,0,0,1,270,183.9a10.46,10.46,0,0,1,1.28-5.22,12.12,12.12,0,0,1,3.38-3.85,14.94,14.94,0,0,1,4.88-2.45,20.89,20.89,0,0,1,5.93-.8,23.52,23.52,0,0,1,3.14.18c1.09.15,2.08.34,3.05.53a19.48,19.48,0,0,1,2.68.75,10.15,10.15,0,0,1,2,.84,4,4,0,0,1,1.4,1.18,2.5,2.5,0,0,1,.43,1.55v2.21c0,1-.37,1.49-1.08,1.49a4.89,4.89,0,0,1-1.87-.56,21.55,21.55,0,0,0-9-1.87,12,12,0,0,0-6.24,1.31,4.53,4.53,0,0,0-2.21,4.19,4.41,4.41,0,0,0,1.4,3.33,14.16,14.16,0,0,0,5.28,2.66l6.58,2.16a14.35,14.35,0,0,1,7.28,4.51,10.71,10.71,0,0,1,2.17,6.59,12.22,12.22,0,0,1-1.22,5.44,12.67,12.67,0,0,1-3.42,4,15.15,15.15,0,0,1-5.22,2.64A22.51,22.51,0,0,1,283.81,215.85Z"/><path class="cls-30" d="M292.68,238.61C277.21,250,254.75,256.1,235.44,256.1a103.56,103.56,0,0,1-69.88-26.65c-1.45-1.31-.15-3.11,1.59-2.08A141,141,0,0,0,237.09,246,139.68,139.68,0,0,0,290.44,235C293,233.86,295.22,236.72,292.68,238.61Z"/><path class="cls-30" d="M299.13,231.28c-2-2.54-13.09-1.21-18.08-.62-1.5.19-1.74-1.12-.38-2.11,8.83-6.21,23.36-4.41,25.05-2.36s-.47,16.63-8.74,23.59c-1.27,1.09-2.49.52-1.87-.9C296.93,244.24,301.19,233.77,299.13,231.28Z"/><path class="cls-31" d="M695.25,245.45l33.3-5.88.31-.07-17.13-20.38q-8.61-10.2-17.12-20.47c0-.1,17.68-48.81,17.78-49s12.07,20.72,29.18,50.37l29.34,50.87.22.39H662.26l33-5.82Zm-65.33-6.2s8.07-14,17.94-31.14L665.79,177l20.9-17.54c11.5-9.64,20.93-17.55,21-17.56a3.61,3.61,0,0,1-.34.84l-22.7,48.68-22.3,47.81-16.2,0c-8.92,0-16.21,0-16.21,0Z"/><path class="cls-32" d="M510.53,395.6h3.69l10.51-10.51.52-4.47a47.25,47.25,0,0,0-76.87,23.06,5.7,5.7,0,0,1,3.69-.22l21-3.47s1.07-1.77,1.63-1.66a26.23,26.23,0,0,1,35.89-2.73Z"/><path class="cls-33" d="M539.71,403.68a47.44,47.44,0,0,0-14.27-23l-14.76,14.75a26.25,26.25,0,0,1,9.63,20.81v2.62a13.13,13.13,0,0,1,0,26.26H494l-2.61,2.66v15.75l2.61,2.62h26.27a34.16,34.16,0,0,0,19.4-62.45Z"/><path class="cls-34" d="M467.74,466H494V445H467.74a13,13,0,0,1-5.42-1.18l-3.69,1.15-10.58,10.51-.93,3.69A34,34,0,0,0,467.74,466Z"/><path class="cls-35" d="M467.74,397.78A34.16,34.16,0,0,0,447.12,459l15.24-15.24a13.13,13.13,0,1,1,17.37-17.37L495,411.17A34.11,34.11,0,0,0,467.74,397.78Z"/></g></g></svg>